<svg xmlns="http://www.w3.org/2000/svg" width="34.785" height="22.36" viewBox="0 0 34.785 22.36"><defs><style>.a{fill:#c7d0db;}</style></defs><path class="a" d="M19.626,7.875c-6.242,0-11.165,3.929-17.05,10.349a1.228,1.228,0,0,0-.008,1.654c5.039,5.567,9.48,10.357,17.058,10.357,7.485,0,13.1-6.033,17.089-10.4a1.218,1.218,0,0,0,.039-1.607C32.685,13.294,27.056,7.875,19.626,7.875Zm.342,18.16a6.988,6.988,0,1,1,6.654-6.654A6.99,6.99,0,0,1,19.967,26.035Z" transform="translate(-2.252 -7.875)"/><path class="a" d="M18.725,14.888a3.836,3.836,0,0,1,.253-1.38c-.082,0-.163-.008-.253-.008a5.224,5.224,0,1,0,5.225,5.225c0-.106-.008-.212-.008-.318a3.62,3.62,0,0,1-1.486.318A3.79,3.79,0,0,1,18.725,14.888Z" transform="translate(-1.336 -7.546)"/></svg>