<svg xmlns="http://www.w3.org/2000/svg" width="28.205" height="48.351" viewBox="0 0 28.205 48.351"><defs><style>.a{fill:#27e4e8;}.b{fill:#80ced0;}.c{fill:#92f1f3;}</style></defs><g transform="translate(0)"><rect class="a" width="28.205" height="48.351" rx="10" transform="translate(0)"/><line class="b" x2="12.024" transform="translate(7.996 2.959)"/><path class="c" d="M23.168,2.014A3.022,3.022,0,0,1,26.19,5.036V43.315a3.022,3.022,0,0,1-3.022,3.022H5.036a3.022,3.022,0,0,1-3.022-3.022V5.036A3.022,3.022,0,0,1,5.036,2.014H23.168m0-2.014H5.036A5.036,5.036,0,0,0,0,5.036V43.315a5.036,5.036,0,0,0,5.036,5.036H23.168A5.037,5.037,0,0,0,28.2,43.315V5.036A5.037,5.037,0,0,0,23.169,0Z" transform="translate(0)"/><path class="c" d="M86.736,22.68H74.712a1.008,1.008,0,1,1,0-2.014H86.736a1.008,1.008,0,1,1,0,2.014Z" transform="translate(-66.716 -18.713)"/></g></svg>